<svg xmlns="http://www.w3.org/2000/svg" xmlns:xlink="http://www.w3.org/1999/xlink" version="1.1" x="0px" y="0px" viewBox="0 0 100 100" style="enable-background:new 0 0 100 100;" xml:space="preserve"><path d="M94.4,88.8c-7-7-14.1-14.1-21.1-21.1c5.4-6.7,8.6-15.2,8.7-24.2C81.7,27.4,71.9,12.9,56.7,7.3C41.3,1.7,23.5,6.7,13.4,19.5  C3.4,32,2.2,49.9,10.6,63.6c8.4,13.6,24.6,20.7,40.2,17.8c7.7-1.5,14.5-5.3,19.7-10.5c7,7,13.9,13.9,20.9,20.9  C93.3,93.6,96.3,90.7,94.4,88.8z M55.1,75.9C41.6,80.7,26.1,76.4,17,65.4C7.8,54.4,6.6,38.3,13.9,26C21.2,13.6,36.1,6.9,50.3,9.8  c16,3.3,27.3,17.5,27.6,33.7C77.6,57.9,68.7,71,55.1,75.9z"></path></svg>